<?xml version='1.0' encoding='iso-8859-1'?>
<!-- Uploaded to: SVG Repo, www.svgrepo.com, Generator: SVG Repo Mixer Tools -->
<svg fill="#000000" height="800px" width="800px" version="1.1" xmlns="http://www.w3.org/2000/svg" viewBox="0 0 357.632 357.632" xmlns:xlink="http://www.w3.org/1999/xlink" enable-background="new 0 0 357.632 357.632">
  <g>
    <path d="m178.816,0c-83.467,0-153.753,57.487-173.364,134.945-0.228,0.591-0.37,1.198-0.442,1.806-3.266,13.495-5.01,27.579-5.01,42.065 0,42.437 14.869,81.461 39.658,112.157 0.371,0.623 0.828,1.187 1.357,1.676 32.825,39.667 82.411,64.982 137.8,64.982 98.6,0 178.816-80.216 178.816-178.816s-80.215-178.815-178.815-178.815zm0,15c74.548,0 137.619,50.057 157.383,118.322l-80.271,41.704c-7.485-7.755-17.973-12.593-29.577-12.593h-95.068c-11.777,0-22.405,4.983-29.91,12.942l-80.073-41.601c19.614-68.497 82.803-118.774 157.516-118.774zm-73.663,251.326v-62.765c0-14.407 11.721-26.128 26.129-26.128h95.068c8.562,0 16.174,4.139 20.943,10.522 0.001,0.002 0.002,0.005 0.003,0.007 0.278,0.534 0.622,1.009 0.999,1.445 2.642,4.082 4.183,8.94 4.183,14.154v62.765c0,14.407-11.721,26.128-26.128,26.128h-95.068c-14.408,0.001-26.129-11.721-26.129-26.128zm-87.394-117.489l75.447,39.197c-1.962,4.794-3.053,10.034-3.053,15.526v62.765c0,4.663 0.791,9.142 2.227,13.323h-42.582c-21.792-27.819-34.798-62.835-34.798-100.832 0-10.238 0.953-20.256 2.759-29.979zm45.329,145.812h38.414c7.497,7.879 18.071,12.805 29.78,12.805h95.068c11.709,0 22.282-4.926 29.779-12.805h38.414c-29.659,29.632-70.59,47.982-115.728,47.982s-86.068-18.35-115.727-47.982zm244.746-15h-42.583c1.436-4.182 2.227-8.661 2.227-13.323v-62.765c0-5.656-1.149-11.049-3.223-15.959l75.527-39.239c1.863,9.871 2.85,20.048 2.85,30.452 5.68434e-14,37.998-13.007,73.014-34.798,100.834z"/>
    <path d="m78.08,139.25c0.386,0.042 2.735,0.28 6.494,0.28 13.005,0 42.86-2.846 66.489-26.475 2.929-2.929 2.929-7.678 0-10.606-2.929-2.929-7.678-2.929-10.606,0-25.22,25.22-60.31,21.936-60.764,21.889-4.106-0.434-7.803,2.53-8.253,6.642-0.451,4.116 2.522,7.819 6.64,8.27z"/>
    <path d="m273.058,139.529c3.757,0 6.108-0.238 6.494-0.28 4.11-0.45 7.071-4.139 6.632-8.25-0.439-4.111-4.131-7.093-8.244-6.663-0.352,0.038-35.507,3.369-60.765-21.889-2.929-2.929-7.678-2.929-10.606,0-2.929,2.929-2.929,7.678 0,10.606 23.631,23.632 53.486,26.476 66.489,26.476z"/>
  </g>
</svg>