<svg width="51" height="50" viewBox="0 0 51 50" fill="none" xmlns="http://www.w3.org/2000/svg">
<path d="M25.5 9.5312C27.5923 7.47991 30.4301 6.32751 33.389 6.32751C36.348 6.32751 39.1858 7.47991 41.2781 9.5312C43.3704 11.5825 44.5459 14.3646 44.5459 17.2656C44.5459 20.1665 43.3704 22.9487 41.2781 24.9999L25.5 40.4687C24.464 41.4844 23.2341 42.2901 21.8804 42.8398C20.5268 43.3895 19.0761 43.6724 17.6109 43.6724C14.6519 43.6724 11.8142 42.52 9.72186 40.4687C7.62955 38.4174 6.4541 35.6353 6.4541 32.7343C6.4541 29.8334 7.62955 27.0512 9.72186 24.9999L25.5 9.5312ZM32.2639 29.4187L39.0214 22.7937C40.5052 21.3266 41.3358 19.343 41.3315 17.2769C41.3272 15.2108 40.4883 13.2305 38.9983 11.7694C37.5084 10.3082 35.4887 9.48521 33.3813 9.4804C31.274 9.47558 29.2504 10.2894 27.7535 11.7437L20.9929 18.3687L32.2639 29.4187ZM25.0346 33.9187C25.1826 33.7734 25.2999 33.601 25.3799 33.4113C25.4599 33.2215 25.501 33.0182 25.5009 32.8129C25.5007 32.6076 25.4593 32.4043 25.3791 32.2147C25.2988 32.0251 25.1812 31.8528 25.033 31.7078C24.8848 31.5627 24.709 31.4477 24.5154 31.3692C24.3219 31.2908 24.1145 31.2505 23.9051 31.2506C23.6957 31.2508 23.4884 31.2914 23.2949 31.3701C23.1015 31.4488 22.9258 31.564 22.7779 31.7093L17.9966 36.3968C17.8486 36.5421 17.7313 36.7145 17.6513 36.9043C17.5713 37.094 17.5302 37.2973 17.5303 37.5026C17.5306 37.9172 17.6989 38.3148 17.9982 38.6078C18.2975 38.9007 18.7032 39.0652 19.1261 39.0649C19.549 39.0646 19.9545 38.8996 20.2534 38.6062L25.0346 33.9187Z" fill="black"/>
</svg>
